<?xml version="1.0" standalone="no"?><!DOCTYPE svg PUBLIC "-//W3C//DTD SVG 1.1//EN" "http://www.w3.org/Graphics/SVG/1.1/DTD/svg11.dtd"><svg class="icon" width="200px" height="200.00px" viewBox="0 0 1024 1024" version="1.1" xmlns="http://www.w3.org/2000/svg"><path d="M113.777664 512c0-219.931648 178.290688-398.222336 398.222336-398.222336 219.931648 0 398.222336 178.290688 398.222336 398.222336v284.444672c0 31.418368-25.469952 56.88832-56.889344 56.88832h-56.88832c-31.419392 0-56.889344-25.469952-56.889344-56.88832V568.889344c0-31.419392 25.469952-56.889344 56.889344-56.889344h56.88832c0-188.51328-152.819712-341.332992-341.332992-341.332992-188.51328 0-341.332992 152.819712-341.332992 341.332992h56.88832c31.419392 0 56.889344 25.469952 56.889344 56.889344v227.555328c0 31.418368-25.469952 56.88832-56.889344 56.88832h-56.88832c-31.419392 0-56.889344-25.469952-56.889344-56.88832V512z" fill="#323233" /></svg>