<?xml version="1.0" standalone="no"?><!DOCTYPE svg PUBLIC "-//W3C//DTD SVG 1.1//EN" "http://www.w3.org/Graphics/SVG/1.1/DTD/svg11.dtd"><svg class="icon" width="200px" height="200.00px" viewBox="0 0 1024 1024" version="1.1" xmlns="http://www.w3.org/2000/svg"><path d="M682.667008 779.377664v166.048768c0 15.709184-12.735488 28.444672-28.444672 28.444672-3.812352 0-7.584768-0.765952-11.09504-2.2528L534.19008 925.47072a56.889344 56.889344 0 0 0-44.378112 0l-108.93824 46.14656c-14.465024 6.126592-31.159296-0.631808-37.286912-15.096832a28.444672 28.444672 0 0 1-2.2528-11.09504V779.377664c51.72736 24.572928 109.591552 38.322176 170.667008 38.322176 61.075456 0 118.939648-13.749248 170.667008-38.322176zM512 85.332992c188.51328 0 341.332992 152.820736 341.332992 341.334016S700.51328 768 512 768c-188.51328 0-341.332992-152.819712-341.332992-341.332992 0-188.51328 152.819712-341.334016 341.332992-341.334016z m0 227.556352c-62.83776 0-113.777664 50.939904-113.777664 113.77664 0 62.838784 50.939904 113.778688 113.777664 113.778688s113.777664-50.939904 113.777664-113.777664S574.83776 312.889344 512 312.889344z" fill="#323233" /></svg>