<?xml version="1.0" standalone="no"?><!DOCTYPE svg PUBLIC "-//W3C//DTD SVG 1.1//EN" "http://www.w3.org/Graphics/SVG/1.1/DTD/svg11.dtd"><svg class="icon" width="200px" height="200.00px" viewBox="0 0 1024 1024" version="1.1" xmlns="http://www.w3.org/2000/svg"><path d="M341.332992 284.444672c0-94.257152 75.045888-170.667008 167.61856-170.667008 92.57472 0 167.619584 76.41088 167.619584 170.667008h97.723392c20.445184 0 37.36576 15.896576 38.64064 36.3008l37.82656 605.2352c1.334272 21.34016-14.88384 39.72096-36.225024 41.055232-0.80384 0.050176-1.608704 0.074752-2.414592 0.074752H211.877888c-21.382144 0-38.716416-17.333248-38.716416-38.715392 0-0.805888 0.0256-1.610752 0.075776-2.415616l37.82656-605.234176c1.275904-20.404224 18.19648-36.3008 38.641664-36.3008h91.62752z m56.889344 0h221.46048c0-63.065088-49.80736-113.777664-110.73024-113.777664-60.92288 0-110.73024 50.712576-110.73024 113.77664z" fill="#323233" /></svg>