<?xml version="1.0" standalone="no"?><!DOCTYPE svg PUBLIC "-//W3C//DTD SVG 1.1//EN" "http://www.w3.org/Graphics/SVG/1.1/DTD/svg11.dtd"><svg class="icon" width="200px" height="200.00px" viewBox="0 0 1024 1024" version="1.1" xmlns="http://www.w3.org/2000/svg"><path d="M512 910.222336c219.931648 0 398.222336-178.290688 398.222336-398.222336 0-219.931648-178.290688-398.222336-398.222336-398.222336-219.931648 0-398.222336 178.290688-398.222336 398.222336 0 219.931648 178.290688 398.222336 398.222336 398.222336z m0-853.332992c251.35104 0 455.110656 203.759616 455.110656 455.110656S763.35104 967.110656 512 967.110656 56.889344 763.35104 56.889344 512 260.64896 56.889344 512 56.889344z m-28.444672 227.555328c-15.709184 0-28.444672 12.734464-28.444672 28.444672v256c0 15.70816 12.735488 28.443648 28.444672 28.443648h256c15.709184 0 28.444672-12.734464 28.444672-28.443648 0-15.710208-12.735488-28.444672-28.444672-28.444672H512V312.889344c0-15.710208-12.735488-28.444672-28.444672-28.444672z" fill="#323233" /></svg>