<?xml version="1.0" standalone="no"?><!DOCTYPE svg PUBLIC "-//W3C//DTD SVG 1.1//EN" "http://www.w3.org/Graphics/SVG/1.1/DTD/svg11.dtd"><svg class="icon" width="200px" height="200.00px" viewBox="0 0 1024 1024" version="1.1" xmlns="http://www.w3.org/2000/svg"><path d="M227.555328 113.777664h455.11168c31.418368 0 56.88832 25.469952 56.88832 56.889344v682.665984c0 31.419392-25.469952 56.889344-56.88832 56.889344H227.555328c-31.418368 0-56.88832-25.469952-56.88832-56.889344V170.667008c0-31.419392 25.469952-56.889344 56.88832-56.889344z m597.334016 0c15.70816 0 28.443648 12.735488 28.443648 28.444672V881.77664c0 15.709184-12.734464 28.444672-28.443648 28.444672-15.710208 0-28.444672-12.735488-28.444672-28.444672V142.22336c0-15.709184 12.734464-28.444672 28.444672-28.444672z m-512 170.667008c-15.710208 0-28.444672 12.734464-28.444672 28.444672 0 15.70816 12.734464 28.443648 28.444672 28.443648h284.443648c15.710208 0 28.444672-12.734464 28.444672-28.443648 0-15.710208-12.734464-28.444672-28.444672-28.444672H312.889344z m0 113.77664c-15.710208 0-28.444672 12.735488-28.444672 28.445696 0 15.70816 12.734464 28.443648 28.444672 28.443648h284.443648c15.710208 0 28.444672-12.734464 28.444672-28.443648 0-15.710208-12.734464-28.444672-28.444672-28.444672H312.889344z m0 113.778688c-15.710208 0-28.444672 12.735488-28.444672 28.444672s12.734464 28.444672 28.444672 28.444672h170.665984c15.709184 0 28.444672-12.735488 28.444672-28.444672S499.264512 512 483.555328 512H312.889344z" fill="#323233" /></svg>