<?xml version="1.0" standalone="no"?><!DOCTYPE svg PUBLIC "-//W3C//DTD SVG 1.1//EN" "http://www.w3.org/Graphics/SVG/1.1/DTD/svg11.dtd"><svg class="icon" width="200px" height="200.00px" viewBox="0 0 1024 1024" version="1.1" xmlns="http://www.w3.org/2000/svg"><path d="M796.331008 850.665472a2.54976 2.54976 0 0 1-2.56 2.56H230.00064a2.54976 2.54976 0 0 1-2.56-2.56V284.336128h568.889344v566.329344zM881.664 227.447808H142.108672c-15.702016 0-28.444672 12.742656-28.444672 28.443648 0 15.702016 12.742656 28.444672 28.444672 28.444672h28.444672v566.329344c0 32.82432 26.624 59.44832 59.44832 59.44832h563.769344c32.82432 0 59.44832-26.624 59.44832-59.44832V284.336128H881.664c15.700992 0 28.444672-12.742656 28.444672-28.444672 0-15.700992-12.74368-28.443648-28.444672-28.443648zM654.108672 739.44064c15.700992 0 28.444672-12.742656 28.444672-28.444672V426.553344c0-15.702016-12.74368-28.444672-28.444672-28.444672-15.702016 0-28.444672 12.742656-28.444672 28.444672v284.443648c0 15.702016 12.742656 28.444672 28.444672 28.444672m-284.444672 0c15.700992 0 28.444672-12.742656 28.444672-28.444672V426.553344c0-15.702016-12.74368-28.444672-28.444672-28.444672-15.700992 0-28.444672 12.742656-28.444672 28.444672v284.443648c0 15.702016 12.74368 28.444672 28.444672 28.444672m142.222336 0c15.700992 0 28.444672-12.742656 28.444672-28.444672V426.553344c0-15.702016-12.74368-28.444672-28.444672-28.444672-15.700992 0-28.444672 12.742656-28.444672 28.444672v284.443648c0 15.702016 12.74368 28.444672 28.444672 28.444672M312.774656 170.553344h398.22336c15.700992 0 28.443648-12.74368 28.443648-28.444672 0-15.702016-12.742656-28.444672-28.444672-28.444672H312.774656c-15.700992 0-28.443648 12.742656-28.443648 28.444672 0 15.700992 12.742656 28.444672 28.443648 28.444672" fill="#323233" /></svg>