<?xml version="1.0" standalone="no"?><!DOCTYPE svg PUBLIC "-//W3C//DTD SVG 1.1//EN" "http://www.w3.org/Graphics/SVG/1.1/DTD/svg11.dtd"><svg class="icon" width="200px" height="200.00px" viewBox="0 0 1024 1024" version="1.1" xmlns="http://www.w3.org/2000/svg"><path d="M881.666048 227.447808c15.702016 0 28.444672 12.742656 28.444672 28.444672 0 15.700992-12.742656 28.444672-28.444672 28.444672h-28.444672V850.66752c0 32.82432-26.624 59.449344-59.44832 59.449344H230.00064c-32.82432 0-59.44832-26.624-59.44832-59.449344V284.337152h-28.444672c-15.702016 0-28.444672-12.74368-28.444672-28.444672 0-15.702016 12.742656-28.444672 28.444672-28.444672zM654.11072 398.109696c-15.700992 0-28.444672 12.742656-28.444672 28.443648v284.445696c0 15.700992 12.74368 28.444672 28.444672 28.444672 15.702016 0 28.444672-12.74368 28.444672-28.444672V426.553344c0-15.700992-12.742656-28.443648-28.444672-28.443648z m-284.444672 0c-15.702016 0-28.444672 12.742656-28.444672 28.443648v284.445696c0 15.700992 12.742656 28.444672 28.444672 28.444672 15.700992 0 28.444672-12.74368 28.444672-28.444672V426.553344c0-15.700992-12.74368-28.443648-28.444672-28.443648z m142.222336 0c-15.700992 0-28.444672 12.742656-28.444672 28.443648v284.445696c0 15.700992 12.74368 28.444672 28.444672 28.444672 15.700992 0 28.444672-12.74368 28.444672-28.444672V426.553344c0-15.700992-12.74368-28.443648-28.444672-28.443648zM312.77568 170.553344h398.22336c15.700992 0 28.444672-12.74368 28.444672-28.444672 0-15.702016-12.74368-28.444672-28.444672-28.444672h-398.22336c-15.700992 0-28.444672 12.742656-28.444672 28.444672 0 15.700992 12.74368 28.444672 28.444672 28.444672" fill="#323233" /></svg>