<?xml version="1.0" standalone="no"?><!DOCTYPE svg PUBLIC "-//W3C//DTD SVG 1.1//EN" "http://www.w3.org/Graphics/SVG/1.1/DTD/svg11.dtd"><svg class="icon" width="200px" height="200.00px" viewBox="0 0 1024 1024" version="1.1" xmlns="http://www.w3.org/2000/svg"><path d="M645.773312 426.665984l-134.68672 486.074368-143.988736-486.074368h278.675456z m305.065984 0l-358.196224 404.7872 112.162816-404.7872h246.033408z m-643.074048 0L426.52672 827.57632 74.19904 426.665984h233.566208z m79.4368-312.88832l-74.534912 256H66.343936l99.647488-255.673344a0.512 0.512 0 0 1 0.477184-0.326656h220.73344z m167.49568 0l87.533568 256H371.918848l74.534912-256h108.243968z m301.78304 0a0.512 0.512 0 0 1 0.475136 0.32256l101.62688 255.67744H702.353408l-87.533568-256h241.660928z" fill="#323233" /></svg>