<?xml version="1.0" standalone="no"?><!DOCTYPE svg PUBLIC "-//W3C//DTD SVG 1.1//EN" "http://www.w3.org/Graphics/SVG/1.1/DTD/svg11.dtd"><svg t="1717643263309" class="icon" viewBox="0 0 1024 1024" version="1.1" xmlns="http://www.w3.org/2000/svg" p-id="16839" xmlns:xlink="http://www.w3.org/1999/xlink" width="32" height="32"><path d="M512 320c-8.288 0-15.776 3.232-21.456 8.4l-0.064-0.08-352 320 0.08 0.08C132.112 654.256 128 662.608 128 672a32 32 0 0 0 32 32c8.288 0 15.76-3.232 21.456-8.4l0.08 0.08L512 395.248 842.464 695.68l0.08-0.08A31.776 31.776 0 0 0 864 704a32 32 0 0 0 32-32c0-9.376-4.112-17.744-10.544-23.6l0.08-0.08-352-320-0.08 0.08c-5.68-5.168-13.168-8.4-21.456-8.4z" p-id="16840" fill="#969799"></path></svg>