<?xml version="1.0" standalone="no"?><!DOCTYPE svg PUBLIC "-//W3C//DTD SVG 1.1//EN" "http://www.w3.org/Graphics/SVG/1.1/DTD/svg11.dtd"><svg t="1717637316065" class="icon" viewBox="0 0 1024 1024" version="1.1" xmlns="http://www.w3.org/2000/svg" p-id="14947" width="32" height="32" data-spm-anchor-id="a313x.search_index.0.i27.53433a81qHK5wD" xmlns:xlink="http://www.w3.org/1999/xlink"><path d="M782.246469 240.527099c36.608779 36.608779 64.905242 79.291904 84.184331 126.794801 18.651802 45.9004 28.084639 94.451162 28.010961 144.263661 0.069585 49.808406-9.359158 98.363262-28.015054 144.260591-19.279089 47.50392-47.569412 90.189092-84.175121 126.793778-36.606733 36.606733-79.294974 64.900126-126.797871 84.179214-45.896306 18.654872-94.451162 28.084639-144.259568 28.015054-49.808406 0.069585-98.365308-9.358135-144.259568-28.015054-47.50392-19.277042-90.192162-47.569412-126.800941-84.179214-36.604686-36.603663-64.895009-79.289857-84.173075-126.793778-18.656919-45.895283-28.084639-94.452185-28.015054-144.260591-0.072655-49.812499 9.359158-98.363262 28.010961-144.263661 19.280112-47.501874 47.575552-90.186022 84.183308-126.793778 36.604686-36.604686 79.286788-64.899102 126.789685-84.178191 45.9004-18.651802 94.451162-28.084639 144.263661-28.011984 49.813522-0.072655 98.363262 9.360182 144.264685 28.011984C702.959681 175.626973 745.642806 203.922413 782.246469 240.527099M827.505255 195.268312C652.829957 20.593014 369.558335 20.593014 194.883037 195.269335 20.202623 369.94975 20.201599 653.220349 194.876897 827.895647c174.681438 174.681438 457.952037 174.679391 632.632451 0C1002.18567 653.220349 1002.18567 369.94975 827.505255 195.268312L827.505255 195.268312 827.505255 195.268312zM557.129338 513.486864 716.737476 353.87975l-45.222971-45.223994L511.906367 468.263893 352.762811 309.12136l-45.344744 45.344744 159.142533 159.143557L309.697993 670.472268l45.201481 45.201481 156.86363-156.86363 157.358911 157.356864 45.333488-45.333488L557.129338 513.486864zM714.465736 670.824285" fill="#ffffff" p-id="14948" data-spm-anchor-id="a313x.search_index.0.i18.53433a81qHK5wD" class="selected"></path></svg>