<?xml version="1.0" standalone="no"?><!DOCTYPE svg PUBLIC "-//W3C//DTD SVG 1.1//EN" "http://www.w3.org/Graphics/SVG/1.1/DTD/svg11.dtd"><svg class="icon" width="200px" height="200.00px" viewBox="0 0 1024 1024" version="1.1" xmlns="http://www.w3.org/2000/svg"><path d="M512 56.889344c251.35104 0 455.110656 203.759616 455.110656 455.110656S763.35104 967.110656 512 967.110656 56.889344 763.35104 56.889344 512 260.64896 56.889344 512 56.889344z m0 398.221312c-31.418368 0-56.889344 25.470976-56.889344 56.889344s25.470976 56.889344 56.889344 56.889344 56.889344-25.470976 56.889344-56.889344-25.470976-56.889344-56.889344-56.889344z m-227.555328 0c-31.419392 0-56.889344 25.470976-56.889344 56.889344s25.469952 56.889344 56.889344 56.889344c31.418368 0 56.88832-25.470976 56.88832-56.889344s-25.469952-56.889344-56.88832-56.889344z m455.110656 0c-31.418368 0-56.88832 25.470976-56.88832 56.889344s25.469952 56.889344 56.88832 56.889344c31.419392 0 56.889344-25.470976 56.889344-56.889344s-25.469952-56.889344-56.889344-56.889344z" fill="#323233" /></svg>