<?xml version="1.0" standalone="no"?><!DOCTYPE svg PUBLIC "-//W3C//DTD SVG 1.1//EN" "http://www.w3.org/Graphics/SVG/1.1/DTD/svg11.dtd"><svg class="icon" width="200px" height="200.00px" viewBox="0 0 1024 1024" version="1.1" xmlns="http://www.w3.org/2000/svg"><path d="M910.222336 170.667008c31.403008 0 56.88832 25.486336 56.88832 56.88832v568.889344c0 31.401984-25.485312 56.88832-56.88832 56.88832H113.77664c-31.403008 0-56.88832-25.486336-56.88832-56.88832V227.555328c0-31.401984 25.485312-56.88832 56.88832-56.88832z m0 56.88832H113.77664v568.889344H910.22336V227.555328zM341.037056 549.92896c23.552 0 42.667008-19.115008 42.667008-42.667008s-19.115008-42.665984-42.667008-42.665984-42.665984 19.113984-42.665984 42.665984c0 23.552 19.113984 42.667008 42.665984 42.667008m170.667008 0c23.552 0 42.667008-19.115008 42.667008-42.667008s-19.115008-42.665984-42.667008-42.665984-42.667008 19.113984-42.667008 42.665984c0 23.552 19.115008 42.667008 42.667008 42.667008m170.667008 0c23.552 0 42.665984-19.115008 42.665984-42.667008s-19.113984-42.665984-42.665984-42.665984c-23.552 0-42.667008 19.113984-42.667008 42.665984 0 23.552 19.115008 42.667008 42.667008 42.667008" fill="#323233" /></svg>