<?xml version="1.0" standalone="no"?><!DOCTYPE svg PUBLIC "-//W3C//DTD SVG 1.1//EN" "http://www.w3.org/Graphics/SVG/1.1/DTD/svg11.dtd"><svg class="icon" width="200px" height="200.00px" viewBox="0 0 1024 1024" version="1.1" xmlns="http://www.w3.org/2000/svg"><path d="M419.555328 341.332992c19.637248 0 35.555328 15.919104 35.555328 35.556352v270.221312c0 19.637248-15.91808 35.556352-35.555328 35.556352-19.636224 0-35.555328-15.919104-35.555328-35.556352V376.889344c0-19.637248 15.919104-35.556352 35.555328-35.556352z m184.889344 0c19.636224 0 35.555328 15.919104 35.555328 35.556352v270.221312c0 19.637248-15.919104 35.556352-35.555328 35.556352-19.637248 0-35.555328-15.919104-35.555328-35.556352V376.889344c0-19.637248 15.91808-35.556352 35.555328-35.556352zM512 910.22336c219.931648 0 398.222336-178.290688 398.222336-398.222336 0-219.931648-178.290688-398.222336-398.222336-398.222336-219.931648 0-398.222336 178.290688-398.222336 398.222336 0 219.931648 178.290688 398.222336 398.222336 398.222336z m0 56.88832C260.64896 967.110656 56.889344 763.35104 56.889344 512S260.64896 56.889344 512 56.889344 967.110656 260.64896 967.110656 512 763.35104 967.110656 512 967.110656z" fill="#323233" /></svg>