<?xml version="1.0" standalone="no"?><!DOCTYPE svg PUBLIC "-//W3C//DTD SVG 1.1//EN" "http://www.w3.org/Graphics/SVG/1.1/DTD/svg11.dtd"><svg class="icon" width="200px" height="200.00px" viewBox="0 0 1024 1024" version="1.1" xmlns="http://www.w3.org/2000/svg"><path d="M163.555328 227.555328h696.889344c27.491328 0 49.77664 22.286336 49.77664 49.777664 0 27.492352-22.285312 49.777664-49.77664 49.777664H163.555328c-27.491328 0-49.77664-22.285312-49.77664-49.77664 0-27.492352 22.285312-49.778688 49.77664-49.778688z m0 248.889344h696.889344c27.491328 0 49.77664 22.286336 49.77664 49.77664 0 27.492352-22.285312 49.778688-49.77664 49.778688H163.555328c-27.491328 0-49.77664-22.286336-49.77664-49.777664 0-27.491328 22.285312-49.777664 49.77664-49.777664z m0 248.88832h696.889344c27.491328 0 49.77664 22.286336 49.77664 49.777664 0 27.492352-22.285312 49.778688-49.77664 49.778688H163.555328c-27.491328 0-49.77664-22.286336-49.77664-49.778688 0-27.491328 22.285312-49.77664 49.77664-49.77664z" fill="#323233" /></svg>