<?xml version="1.0" standalone="no"?><!DOCTYPE svg PUBLIC "-//W3C//DTD SVG 1.1//EN" "http://www.w3.org/Graphics/SVG/1.1/DTD/svg11.dtd"><svg class="icon" width="200px" height="200.00px" viewBox="0 0 1024 1024" version="1.1" xmlns="http://www.w3.org/2000/svg"><path fill="#d81e06" d="M512 954.7C266.5 954.7 66.7 755 66.7 509.5S266.5 64.2 512 64.2 957.3 264 957.3 509.5 757.5 954.7 512 954.7z m0-844.3c-220 0-399.1 179-399.1 399.1S292 908.6 512 908.6s399.1-179 399.1-399.1S732 110.4 512 110.4z"  /><path fill="#d81e06" d="M512 623.3c-12.7 0-23.1-10.3-23.1-23.1V283.6c0-12.7 10.3-23.1 23.1-23.1s23.1 10.3 23.1 23.1v316.6c0 12.7-10.4 23.1-23.1 23.1z"  /><path fill="#d81e06" d="M512 695.8m-39.6 0a39.6 39.6 0 1 0 79.2 0 39.6 39.6 0 1 0-79.2 0Z"  /></svg>