<?xml version="1.0" standalone="no"?><!DOCTYPE svg PUBLIC "-//W3C//DTD SVG 1.1//EN" "http://www.w3.org/Graphics/SVG/1.1/DTD/svg11.dtd"><svg t="1713508653883" class="icon" viewBox="0 0 1024 1024" version="1.1" xmlns="http://www.w3.org/2000/svg" p-id="7392" xmlns:xlink="http://www.w3.org/1999/xlink" width="256" height="256"><path d="M504.787121 16.587353c-278.279557 0-503.868569 225.589013-503.868569 503.868569 0 278.279557 225.589013 503.868569 503.868569 503.868569s503.868569-225.589013 503.868569-503.868569C1008.65569 242.176366 783.06567 16.587353 504.787121 16.587353zM504.787121 984.015006c-256.016628 0-463.559084-207.542456-463.559084-463.559084 0-256.016628 207.542456-463.559084 463.559084-463.559084s463.559084 207.542456 463.559084 463.559084C968.346205 776.47255 760.803749 984.015006 504.787121 984.015006z" fill="#e6e6e6" p-id="7393"></path><path d="M501.60368 781.248216m-40.309486 0a40 40 0 1 0 80.618971 0 40 40 0 1 0-80.618971 0Z" fill="#e6e6e6" p-id="7394"></path><path d="M526.594553 630.416168c0 13.802976-11.188905 24.991881-24.991881 24.991881l0 0c-13.802976 0-24.990873-11.188905-24.990873-24.991881l0-387.404388c0-13.801968 11.188905-24.990873 24.990873-24.990873l0 0c13.802976 0 24.991881 11.188905 24.991881 24.990873L526.594553 630.416168z" fill="#e6e6e6" p-id="7395"></path><path d="M504.787121 16.459371c-277.981266 0-503.330437 225.348163-503.330437 503.32943 0 277.983282 225.349171 503.330437 503.330437 503.330437 277.982274 0 503.330437-225.347156 503.330437-503.330437C1008.117559 241.807534 782.769395 16.459371 504.787121 16.459371zM504.787121 970.571792c-248.960452 0-450.781984-201.820524-450.781984-450.782992 0-248.959444 201.821532-450.781984 450.781984-450.781984 248.96146 0 450.780977 201.82254 450.780977 450.781984C955.568098 768.751268 753.748581 970.571792 504.787121 970.571792z" p-id="7396" fill="#e6e6e6"></path></svg>